<svg xmlns="http://www.w3.org/2000/svg" viewBox="0 0 1036.25 267.54">
  <g id="Ebene_2" data-name="Ebene 2">
    <g id="Ebene_2-2" data-name="Ebene 2">
      <g>
        <path d="M990.43,0V50.4H872.79V98.68H982.61v51H872.79v47.94H990.43V245.9H803.09V0H784L693.27,245.9H607.59L519.28,0H417.6c3.18.84,6.33,1.76,9.45,2.8a149.31,149.31,0,0,1,38.76,19.72q18.36,12.93,27.71,38.25t9.35,62.73q0,5.1-.17,10.2c-.12,3.4-.4,6.92-.85,10.54q-.35,2.73-.68,5.44t-.68,5.44c-.46,2-.85,4-1.19,5.78s-.74,3.63-1.19,5.44a115,115,0,0,1-12.75,30.94,148.76,148.76,0,0,1-21.59,27.88q-12.93,13.26-33.83,19.72t-50.15,6.46q-38.76,0-64.6-9T276.09,215a161,161,0,0,1-20.74-38.59,156.2,156.2,0,0,1-9.18-42.67V132a1.13,1.13,0,0,1-.34-.85v-5.61a194.39,194.39,0,0,1,7.65-47.26,184.69,184.69,0,0,1,18.87-42.84q12.24-20.05,38.42-30.26A127.87,127.87,0,0,1,327.69,0H235.1V267.54h801.15V0Z" style="fill: #9d9d9c"/>
        <polygon points="230.05 0 114.93 0 114.93 194.9 224.75 194.9 224.75 245.9 45.23 245.9 45.23 0 0 0 0 267.54 230.05 267.54 230.05 0" style="fill: #9d9d9c"/>
      </g>
    </g>
  </g>
</svg>
